<mxfile host="65bd71144e">
    <diagram id="ntcLWnqz7ZC6_CtuRre0" name="Page-1">
        <mxGraphModel dx="616" dy="284" grid="1" gridSize="10" guides="1" tooltips="1" connect="1" arrows="1" fold="1" page="1" pageScale="1" pageWidth="850" pageHeight="1100" math="0" shadow="0">
            <root>
                <mxCell id="0"/>
                <mxCell id="1" parent="0"/>
                <mxCell id="150" value="" style="rounded=0;whiteSpace=wrap;html=1;labelBackgroundColor=none;shadow=0;glass=0;sketch=0;fillColor=#2E2E2E;" vertex="1" parent="1">
                    <mxGeometry x="41" y="2040" width="770" height="540" as="geometry"/>
                </mxCell>
                <mxCell id="153" value="" style="rounded=1;whiteSpace=wrap;html=1;fontSize=18;fillColor=#1ba1e2;fontColor=#ffffff;strokeColor=#006EAF;" vertex="1" parent="1">
                    <mxGeometry x="41" y="2499" width="770" height="81" as="geometry"/>
                </mxCell>
                <mxCell id="133" value="" style="rounded=0;whiteSpace=wrap;html=1;labelBackgroundColor=none;fillColor=#2E2E2E;" vertex="1" parent="1">
                    <mxGeometry x="41" y="1400" width="770" height="540" as="geometry"/>
                </mxCell>
                <mxCell id="138" value="&lt;font style=&quot;font-size: 48px&quot;&gt;Footer&lt;/font&gt;" style="text;html=1;strokeColor=none;fillColor=none;align=center;verticalAlign=middle;whiteSpace=wrap;rounded=0;fontSize=12;" vertex="1" parent="1">
                    <mxGeometry x="270" y="1870" width="278" height="30" as="geometry"/>
                </mxCell>
                <mxCell id="139" value="" style="rounded=1;whiteSpace=wrap;html=1;fontSize=18;fillColor=#1ba1e2;fontColor=#ffffff;strokeColor=#006EAF;" vertex="1" parent="1">
                    <mxGeometry x="41" y="1859" width="770" height="81" as="geometry"/>
                </mxCell>
                <mxCell id="134" value="" style="rounded=0;whiteSpace=wrap;html=1;strokeColor=#4A4A4A;fillColor=#2E2E2E;" vertex="1" parent="1">
                    <mxGeometry x="41" y="770" width="770" height="540" as="geometry"/>
                </mxCell>
                <mxCell id="22" value="" style="rounded=1;whiteSpace=wrap;html=1;fontSize=18;fillColor=#0050ef;fontColor=#ffffff;strokeColor=#001DBC;" vertex="1" parent="1">
                    <mxGeometry x="41" y="770" width="770" height="50" as="geometry"/>
                </mxCell>
                <mxCell id="24" value="Nhân viên" style="text;html=1;strokeColor=none;fillColor=none;align=center;verticalAlign=middle;whiteSpace=wrap;rounded=0;fontSize=18;" vertex="1" parent="1">
                    <mxGeometry x="79" y="780" width="110" height="30" as="geometry"/>
                </mxCell>
                <mxCell id="25" value="Phòng ban" style="text;html=1;strokeColor=none;fillColor=none;align=center;verticalAlign=middle;whiteSpace=wrap;rounded=0;fontSize=18;" vertex="1" parent="1">
                    <mxGeometry x="189" y="780" width="110" height="30" as="geometry"/>
                </mxCell>
                <mxCell id="26" value="Bảng Lương" style="text;html=1;strokeColor=none;fillColor=none;align=center;verticalAlign=middle;whiteSpace=wrap;rounded=0;fontSize=18;" vertex="1" parent="1">
                    <mxGeometry x="309" y="780" width="110" height="30" as="geometry"/>
                </mxCell>
                <mxCell id="27" value="" style="rounded=0;whiteSpace=wrap;html=1;fontSize=18;fillColor=#6d8764;fontColor=#ffffff;strokeColor=#3A5431;" vertex="1" parent="1">
                    <mxGeometry x="69" y="840" width="110" height="120" as="geometry"/>
                </mxCell>
                <mxCell id="28" value="&lt;font style=&quot;font-size: 12px&quot;&gt;Nguyễn Văn A&lt;/font&gt;" style="text;html=1;strokeColor=none;fillColor=none;align=center;verticalAlign=middle;whiteSpace=wrap;rounded=0;fontSize=18;" vertex="1" parent="1">
                    <mxGeometry x="89" y="920" width="80" height="30" as="geometry"/>
                </mxCell>
                <mxCell id="29" value="" style="shape=actor;whiteSpace=wrap;html=1;fontSize=12;" vertex="1" parent="1">
                    <mxGeometry x="109" y="850" width="40" height="60" as="geometry"/>
                </mxCell>
                <mxCell id="35" value="" style="rounded=0;whiteSpace=wrap;html=1;fontSize=18;fillColor=#6d8764;fontColor=#ffffff;strokeColor=#3A5431;" vertex="1" parent="1">
                    <mxGeometry x="219" y="840" width="110" height="120" as="geometry"/>
                </mxCell>
                <mxCell id="36" value="" style="rounded=0;whiteSpace=wrap;html=1;fontSize=18;fillColor=#6d8764;fontColor=#ffffff;strokeColor=#3A5431;" vertex="1" parent="1">
                    <mxGeometry x="369" y="840" width="110" height="120" as="geometry"/>
                </mxCell>
                <mxCell id="37" value="" style="rounded=0;whiteSpace=wrap;html=1;fontSize=18;fillColor=#6d8764;fontColor=#ffffff;strokeColor=#3A5431;" vertex="1" parent="1">
                    <mxGeometry x="519" y="840" width="110" height="120" as="geometry"/>
                </mxCell>
                <mxCell id="38" value="" style="rounded=0;whiteSpace=wrap;html=1;fontSize=18;fillColor=#6d8764;fontColor=#ffffff;strokeColor=#3A5431;" vertex="1" parent="1">
                    <mxGeometry x="659" y="840" width="110" height="120" as="geometry"/>
                </mxCell>
                <mxCell id="41" value="" style="shape=actor;whiteSpace=wrap;html=1;fontSize=12;" vertex="1" parent="1">
                    <mxGeometry x="404" y="860" width="40" height="60" as="geometry"/>
                </mxCell>
                <mxCell id="42" value="&lt;font style=&quot;font-size: 12px&quot;&gt;Nguyễn Văn A&lt;/font&gt;" style="text;html=1;strokeColor=none;fillColor=none;align=center;verticalAlign=middle;whiteSpace=wrap;rounded=0;fontSize=18;" vertex="1" parent="1">
                    <mxGeometry x="384" y="930" width="80" height="30" as="geometry"/>
                </mxCell>
                <mxCell id="43" value="" style="shape=actor;whiteSpace=wrap;html=1;fontSize=12;" vertex="1" parent="1">
                    <mxGeometry x="554" y="860" width="40" height="60" as="geometry"/>
                </mxCell>
                <mxCell id="44" value="&lt;font style=&quot;font-size: 12px&quot;&gt;Nguyễn Văn A&lt;/font&gt;" style="text;html=1;strokeColor=none;fillColor=none;align=center;verticalAlign=middle;whiteSpace=wrap;rounded=0;fontSize=18;" vertex="1" parent="1">
                    <mxGeometry x="534" y="930" width="80" height="30" as="geometry"/>
                </mxCell>
                <mxCell id="45" value="" style="shape=actor;whiteSpace=wrap;html=1;fontSize=12;" vertex="1" parent="1">
                    <mxGeometry x="694" y="860" width="40" height="60" as="geometry"/>
                </mxCell>
                <mxCell id="46" value="&lt;font style=&quot;font-size: 12px&quot;&gt;Nguyễn Văn A&lt;/font&gt;" style="text;html=1;strokeColor=none;fillColor=none;align=center;verticalAlign=middle;whiteSpace=wrap;rounded=0;fontSize=18;" vertex="1" parent="1">
                    <mxGeometry x="674" y="930" width="80" height="30" as="geometry"/>
                </mxCell>
                <mxCell id="47" value="" style="shape=actor;whiteSpace=wrap;html=1;fontSize=12;" vertex="1" parent="1">
                    <mxGeometry x="254" y="860" width="40" height="60" as="geometry"/>
                </mxCell>
                <mxCell id="48" value="&lt;font style=&quot;font-size: 12px&quot;&gt;Nguyễn Văn A&lt;/font&gt;" style="text;html=1;strokeColor=none;fillColor=none;align=center;verticalAlign=middle;whiteSpace=wrap;rounded=0;fontSize=18;" vertex="1" parent="1">
                    <mxGeometry x="234" y="930" width="80" height="30" as="geometry"/>
                </mxCell>
                <mxCell id="50" value="" style="rounded=0;whiteSpace=wrap;html=1;fontSize=18;fillColor=#6d8764;fontColor=#ffffff;strokeColor=#3A5431;" vertex="1" parent="1">
                    <mxGeometry x="69" y="995" width="110" height="120" as="geometry"/>
                </mxCell>
                <mxCell id="51" value="&lt;font style=&quot;font-size: 12px&quot;&gt;Nguyễn Văn A&lt;/font&gt;" style="text;html=1;strokeColor=none;fillColor=none;align=center;verticalAlign=middle;whiteSpace=wrap;rounded=0;fontSize=18;" vertex="1" parent="1">
                    <mxGeometry x="89" y="1075" width="80" height="30" as="geometry"/>
                </mxCell>
                <mxCell id="52" value="" style="shape=actor;whiteSpace=wrap;html=1;fontSize=12;" vertex="1" parent="1">
                    <mxGeometry x="109" y="1005" width="40" height="60" as="geometry"/>
                </mxCell>
                <mxCell id="53" value="" style="rounded=0;whiteSpace=wrap;html=1;fontSize=18;fillColor=#6d8764;fontColor=#ffffff;strokeColor=#3A5431;" vertex="1" parent="1">
                    <mxGeometry x="219" y="995" width="110" height="120" as="geometry"/>
                </mxCell>
                <mxCell id="54" value="" style="rounded=0;whiteSpace=wrap;html=1;fontSize=18;fillColor=#6d8764;fontColor=#ffffff;strokeColor=#3A5431;" vertex="1" parent="1">
                    <mxGeometry x="369" y="995" width="110" height="120" as="geometry"/>
                </mxCell>
                <mxCell id="55" value="" style="rounded=0;whiteSpace=wrap;html=1;fontSize=18;fillColor=#6d8764;fontColor=#ffffff;strokeColor=#3A5431;" vertex="1" parent="1">
                    <mxGeometry x="519" y="995" width="110" height="120" as="geometry"/>
                </mxCell>
                <mxCell id="56" value="" style="rounded=0;whiteSpace=wrap;html=1;fontSize=18;fillColor=#6d8764;fontColor=#ffffff;strokeColor=#3A5431;" vertex="1" parent="1">
                    <mxGeometry x="659" y="995" width="110" height="120" as="geometry"/>
                </mxCell>
                <mxCell id="57" value="" style="shape=actor;whiteSpace=wrap;html=1;fontSize=12;" vertex="1" parent="1">
                    <mxGeometry x="404" y="1015" width="40" height="60" as="geometry"/>
                </mxCell>
                <mxCell id="58" value="&lt;font style=&quot;font-size: 12px&quot;&gt;Nguyễn Văn A&lt;/font&gt;" style="text;html=1;strokeColor=none;fillColor=none;align=center;verticalAlign=middle;whiteSpace=wrap;rounded=0;fontSize=18;" vertex="1" parent="1">
                    <mxGeometry x="384" y="1085" width="80" height="30" as="geometry"/>
                </mxCell>
                <mxCell id="59" value="" style="shape=actor;whiteSpace=wrap;html=1;fontSize=12;" vertex="1" parent="1">
                    <mxGeometry x="554" y="1015" width="40" height="60" as="geometry"/>
                </mxCell>
                <mxCell id="60" value="&lt;font style=&quot;font-size: 12px&quot;&gt;Nguyễn Văn A&lt;/font&gt;" style="text;html=1;strokeColor=none;fillColor=none;align=center;verticalAlign=middle;whiteSpace=wrap;rounded=0;fontSize=18;" vertex="1" parent="1">
                    <mxGeometry x="534" y="1085" width="80" height="30" as="geometry"/>
                </mxCell>
                <mxCell id="61" value="" style="shape=actor;whiteSpace=wrap;html=1;fontSize=12;" vertex="1" parent="1">
                    <mxGeometry x="694" y="1015" width="40" height="60" as="geometry"/>
                </mxCell>
                <mxCell id="62" value="&lt;font style=&quot;font-size: 12px&quot;&gt;Nguyễn Văn A&lt;/font&gt;" style="text;html=1;strokeColor=none;fillColor=none;align=center;verticalAlign=middle;whiteSpace=wrap;rounded=0;fontSize=18;" vertex="1" parent="1">
                    <mxGeometry x="674" y="1085" width="80" height="30" as="geometry"/>
                </mxCell>
                <mxCell id="63" value="" style="shape=actor;whiteSpace=wrap;html=1;fontSize=12;" vertex="1" parent="1">
                    <mxGeometry x="254" y="1015" width="40" height="60" as="geometry"/>
                </mxCell>
                <mxCell id="64" value="&lt;font style=&quot;font-size: 12px&quot;&gt;Nguyễn Văn A&lt;/font&gt;" style="text;html=1;strokeColor=none;fillColor=none;align=center;verticalAlign=middle;whiteSpace=wrap;rounded=0;fontSize=18;" vertex="1" parent="1">
                    <mxGeometry x="234" y="1085" width="80" height="30" as="geometry"/>
                </mxCell>
                <mxCell id="81" value="" style="rounded=1;whiteSpace=wrap;html=1;fontSize=18;fillColor=#0050ef;fontColor=#ffffff;strokeColor=#001DBC;" vertex="1" parent="1">
                    <mxGeometry x="41" y="1400" width="770" height="68" as="geometry"/>
                </mxCell>
                <mxCell id="82" value="Nhân viên" style="text;html=1;strokeColor=none;fillColor=none;align=center;verticalAlign=middle;whiteSpace=wrap;rounded=0;fontSize=18;" vertex="1" parent="1">
                    <mxGeometry x="81" y="1410" width="110" height="48" as="geometry"/>
                </mxCell>
                <mxCell id="83" value="Phòng ban" style="text;html=1;strokeColor=none;fillColor=none;align=center;verticalAlign=middle;whiteSpace=wrap;rounded=0;fontSize=18;" vertex="1" parent="1">
                    <mxGeometry x="191" y="1410" width="110" height="48" as="geometry"/>
                </mxCell>
                <mxCell id="84" value="Bảng Lương" style="text;html=1;strokeColor=none;fillColor=none;align=center;verticalAlign=middle;whiteSpace=wrap;rounded=0;fontSize=18;" vertex="1" parent="1">
                    <mxGeometry x="311" y="1410" width="110" height="48" as="geometry"/>
                </mxCell>
                <mxCell id="85" value="" style="rounded=0;whiteSpace=wrap;html=1;fontSize=18;fillColor=#6d8764;fontColor=#ffffff;strokeColor=#3A5431;" vertex="1" parent="1">
                    <mxGeometry x="65" y="1527" width="110" height="138" as="geometry"/>
                </mxCell>
                <mxCell id="86" value="&lt;font style=&quot;font-size: 12px&quot;&gt;Nguyễn Văn A&lt;/font&gt;" style="text;html=1;strokeColor=none;fillColor=none;align=center;verticalAlign=middle;whiteSpace=wrap;rounded=0;fontSize=18;" vertex="1" parent="1">
                    <mxGeometry x="82" y="1617" width="80" height="48" as="geometry"/>
                </mxCell>
                <mxCell id="87" value="" style="shape=actor;whiteSpace=wrap;html=1;fontSize=12;" vertex="1" parent="1">
                    <mxGeometry x="101" y="1536" width="40" height="78" as="geometry"/>
                </mxCell>
                <mxCell id="135" value="" style="rounded=1;whiteSpace=wrap;html=1;fontSize=18;fillColor=#1ba1e2;fontColor=#ffffff;strokeColor=#006EAF;" vertex="1" parent="1">
                    <mxGeometry x="41" y="1230" width="770" height="80" as="geometry"/>
                </mxCell>
                <mxCell id="136" value="Text" style="text;html=1;strokeColor=none;fillColor=none;align=center;verticalAlign=middle;whiteSpace=wrap;rounded=0;fontSize=12;" vertex="1" parent="1">
                    <mxGeometry x="379" y="1090" width="60" height="30" as="geometry"/>
                </mxCell>
                <mxCell id="137" value="&lt;font style=&quot;font-size: 48px&quot;&gt;Footer&lt;/font&gt;" style="text;html=1;strokeColor=none;fillColor=none;align=center;verticalAlign=middle;whiteSpace=wrap;rounded=0;fontSize=12;" vertex="1" parent="1">
                    <mxGeometry x="234" y="1255" width="278" height="30" as="geometry"/>
                </mxCell>
                <mxCell id="140" value="&lt;font style=&quot;font-size: 48px&quot;&gt;Footer&lt;/font&gt;" style="text;html=1;strokeColor=none;fillColor=none;align=center;verticalAlign=middle;whiteSpace=wrap;rounded=0;fontSize=12;" vertex="1" parent="1">
                    <mxGeometry x="254" y="1879.5" width="278" height="30" as="geometry"/>
                </mxCell>
                <mxCell id="141" value="" style="rounded=1;whiteSpace=wrap;html=1;fontSize=18;fillColor=none;strokeColor=#2D7600;fontColor=#ffffff;gradientColor=none;glass=0;" vertex="1" parent="1">
                    <mxGeometry x="41" y="1469" width="258" height="40" as="geometry"/>
                </mxCell>
                <mxCell id="142" value="Nhân viên / Nguyễn Văn A" style="text;html=1;strokeColor=none;fillColor=none;align=center;verticalAlign=middle;whiteSpace=wrap;rounded=0;fontSize=18;" vertex="1" parent="1">
                    <mxGeometry x="41" y="1468" width="238" height="48" as="geometry"/>
                </mxCell>
                <mxCell id="149" value="&lt;span style=&quot;box-sizing: border-box ; font-weight: bolder ; color: rgb(33 , 37 , 41) ; font-size: 16px ; background-color: rgb(255 , 255 , 255)&quot;&gt;Họ và tên:Nguyễn Văn A&lt;/span&gt;&lt;br style=&quot;box-sizing: border-box ; color: rgb(33 , 37 , 41) ; font-size: 16px ; background-color: rgb(255 , 255 , 255)&quot;&gt;&lt;span style=&quot;color: rgb(33 , 37 , 41) ; font-size: 16px ; background-color: rgb(255 , 255 , 255)&quot;&gt;Năm sinh:&amp;nbsp;&lt;/span&gt;&lt;i style=&quot;box-sizing: border-box ; color: rgb(33 , 37 , 41) ; font-size: 16px ; background-color: rgb(255 , 255 , 255)&quot;&gt;01/01/2000&lt;/i&gt;&lt;br style=&quot;box-sizing: border-box ; color: rgb(33 , 37 , 41) ; font-size: 16px ; background-color: rgb(255 , 255 , 255)&quot;&gt;&lt;span style=&quot;color: rgb(33 , 37 , 41) ; font-size: 16px ; background-color: rgb(255 , 255 , 255)&quot;&gt;Phòng ban:&amp;nbsp;&lt;/span&gt;&lt;i style=&quot;box-sizing: border-box ; color: rgb(33 , 37 , 41) ; font-size: 16px ; background-color: rgb(255 , 255 , 255)&quot;&gt;HR&lt;/i&gt;&lt;br style=&quot;box-sizing: border-box ; color: rgb(33 , 37 , 41) ; font-size: 16px ; background-color: rgb(255 , 255 , 255)&quot;&gt;&lt;span style=&quot;color: rgb(33 , 37 , 41) ; font-size: 16px ; background-color: rgb(255 , 255 , 255)&quot;&gt;Ngày vào cty:&lt;/span&gt;&lt;i style=&quot;box-sizing: border-box ; color: rgb(33 , 37 , 41) ; font-size: 16px ; background-color: rgb(255 , 255 , 255)&quot;&gt;30/04/2019&lt;/i&gt;&lt;br style=&quot;box-sizing: border-box ; color: rgb(33 , 37 , 41) ; font-size: 16px ; background-color: rgb(255 , 255 , 255)&quot;&gt;&lt;span style=&quot;color: rgb(33 , 37 , 41) ; font-size: 16px ; background-color: rgb(255 , 255 , 255)&quot;&gt;Chức vụ:&amp;nbsp;&lt;/span&gt;&lt;i style=&quot;box-sizing: border-box ; color: rgb(33 , 37 , 41) ; font-size: 16px ; background-color: rgb(255 , 255 , 255)&quot;&gt;Nhân viên&lt;/i&gt;&lt;br style=&quot;box-sizing: border-box ; color: rgb(33 , 37 , 41) ; font-size: 16px ; background-color: rgb(255 , 255 , 255)&quot;&gt;&lt;span style=&quot;color: rgb(33 , 37 , 41) ; font-size: 16px ; background-color: rgb(255 , 255 , 255)&quot;&gt;Số ngày nghỉ còn lại:&lt;/span&gt;&lt;i style=&quot;box-sizing: border-box ; color: rgb(33 , 37 , 41) ; font-size: 16px ; background-color: rgb(255 , 255 , 255)&quot;&gt;&amp;nbsp;2&lt;/i&gt;&lt;br style=&quot;box-sizing: border-box ; color: rgb(33 , 37 , 41) ; font-size: 16px ; background-color: rgb(255 , 255 , 255)&quot;&gt;&lt;span style=&quot;color: rgb(33 , 37 , 41) ; font-size: 16px ; background-color: rgb(255 , 255 , 255)&quot;&gt;Số ngày đã làm thêm:&lt;/span&gt;&lt;i style=&quot;box-sizing: border-box ; color: rgb(33 , 37 , 41) ; font-size: 16px ; background-color: rgb(255 , 255 , 255)&quot;&gt;3&lt;/i&gt;" style="text;html=1;strokeColor=none;fillColor=none;align=left;verticalAlign=middle;whiteSpace=wrap;rounded=0;glass=0;fontSize=22;fontColor=#000000;" vertex="1" parent="1">
                    <mxGeometry x="220" y="1526" width="260" height="210" as="geometry"/>
                </mxCell>
                <mxCell id="151" value="" style="rounded=1;whiteSpace=wrap;html=1;fontSize=18;fillColor=#0050ef;fontColor=#ffffff;strokeColor=#001DBC;" vertex="1" parent="1">
                    <mxGeometry x="41" y="2040" width="770" height="68" as="geometry"/>
                </mxCell>
                <mxCell id="152" value="&lt;font style=&quot;font-size: 48px&quot;&gt;Footer&lt;/font&gt;" style="text;html=1;strokeColor=none;fillColor=none;align=center;verticalAlign=middle;whiteSpace=wrap;rounded=0;fontSize=12;" vertex="1" parent="1">
                    <mxGeometry x="254" y="2519.5" width="278" height="30" as="geometry"/>
                </mxCell>
                <mxCell id="154" value="Nhân viên" style="text;html=1;strokeColor=none;fillColor=none;align=center;verticalAlign=middle;whiteSpace=wrap;rounded=0;fontSize=18;" vertex="1" parent="1">
                    <mxGeometry x="81" y="2050" width="110" height="48" as="geometry"/>
                </mxCell>
                <mxCell id="155" value="Phòng ban" style="text;html=1;strokeColor=none;fillColor=none;align=center;verticalAlign=middle;whiteSpace=wrap;rounded=0;fontSize=18;" vertex="1" parent="1">
                    <mxGeometry x="191" y="2050" width="110" height="48" as="geometry"/>
                </mxCell>
                <mxCell id="156" value="Bảng Lương" style="text;html=1;strokeColor=none;fillColor=none;align=center;verticalAlign=middle;whiteSpace=wrap;rounded=0;fontSize=18;" vertex="1" parent="1">
                    <mxGeometry x="311" y="2050" width="110" height="48" as="geometry"/>
                </mxCell>
                <mxCell id="157" value="&lt;font color=&quot;#ffffff&quot; style=&quot;font-size: 18px&quot;&gt;&lt;b&gt;Phòng Sale&lt;br&gt;&lt;br&gt;&lt;/b&gt;Số lượng nhân viên: 1&lt;br&gt;&lt;/font&gt;" style="rounded=1;whiteSpace=wrap;html=1;glass=0;labelBackgroundColor=none;fontSize=22;fontColor=#000000;fillColor=none;gradientColor=none;align=left;" vertex="1" parent="1">
                    <mxGeometry x="74" y="2130" width="206" height="90" as="geometry"/>
                </mxCell>
                <mxCell id="158" value="&lt;font color=&quot;#ffffff&quot; style=&quot;font-size: 18px&quot;&gt;&lt;b&gt;Phòng Sale&lt;br&gt;&lt;br&gt;&lt;/b&gt;Số lượng nhân viên: 1&lt;br&gt;&lt;/font&gt;" style="rounded=1;whiteSpace=wrap;html=1;glass=0;labelBackgroundColor=none;fontSize=22;fontColor=#000000;fillColor=none;gradientColor=none;align=left;" vertex="1" parent="1">
                    <mxGeometry x="314" y="2130" width="206" height="90" as="geometry"/>
                </mxCell>
                <mxCell id="159" value="&lt;font color=&quot;#ffffff&quot; style=&quot;font-size: 18px&quot;&gt;&lt;b&gt;Phòng Sale&lt;br&gt;&lt;br&gt;&lt;/b&gt;Số lượng nhân viên: 1&lt;br&gt;&lt;/font&gt;" style="rounded=1;whiteSpace=wrap;html=1;glass=0;labelBackgroundColor=none;fontSize=22;fontColor=#000000;fillColor=none;gradientColor=none;align=left;" vertex="1" parent="1">
                    <mxGeometry x="554" y="2130" width="206" height="90" as="geometry"/>
                </mxCell>
                <mxCell id="160" value="&lt;font color=&quot;#ffffff&quot; style=&quot;font-size: 18px&quot;&gt;&lt;b&gt;Phòng Sale&lt;br&gt;&lt;br&gt;&lt;/b&gt;Số lượng nhân viên: 1&lt;br&gt;&lt;/font&gt;" style="rounded=1;whiteSpace=wrap;html=1;glass=0;labelBackgroundColor=none;fontSize=22;fontColor=#000000;fillColor=none;gradientColor=none;align=left;" vertex="1" parent="1">
                    <mxGeometry x="554" y="2265" width="206" height="90" as="geometry"/>
                </mxCell>
                <mxCell id="161" value="&lt;font color=&quot;#ffffff&quot; style=&quot;font-size: 18px&quot;&gt;&lt;b&gt;Phòng Sale&lt;br&gt;&lt;br&gt;&lt;/b&gt;Số lượng nhân viên: 1&lt;br&gt;&lt;/font&gt;" style="rounded=1;whiteSpace=wrap;html=1;glass=0;labelBackgroundColor=none;fontSize=22;fontColor=#000000;fillColor=none;gradientColor=none;align=left;" vertex="1" parent="1">
                    <mxGeometry x="76" y="2265" width="206" height="90" as="geometry"/>
                </mxCell>
                <mxCell id="162" value="&lt;font color=&quot;#ffffff&quot; style=&quot;font-size: 18px&quot;&gt;&lt;b&gt;Phòng Sale&lt;br&gt;&lt;br&gt;&lt;/b&gt;Số lượng nhân viên: 1&lt;br&gt;&lt;/font&gt;" style="rounded=1;whiteSpace=wrap;html=1;glass=0;labelBackgroundColor=none;fontSize=22;fontColor=#000000;fillColor=none;gradientColor=none;align=left;" vertex="1" parent="1">
                    <mxGeometry x="316" y="2265" width="206" height="90" as="geometry"/>
                </mxCell>
                <mxCell id="168" value="Page 3: Phong Ban" style="rounded=0;whiteSpace=wrap;html=1;glass=0;labelBackgroundColor=none;fontSize=29;fontStyle=1;fillColor=none;strokeColor=none;" vertex="1" parent="1">
                    <mxGeometry x="199" y="1990" width="450" height="60" as="geometry"/>
                </mxCell>
                <mxCell id="169" value="Page 2: Chi tiết nhân viên" style="rounded=0;whiteSpace=wrap;html=1;glass=0;labelBackgroundColor=none;fontSize=29;fontStyle=1;fillColor=none;strokeColor=none;" vertex="1" parent="1">
                    <mxGeometry x="201" y="1340" width="450" height="60" as="geometry"/>
                </mxCell>
                <mxCell id="170" value="Page 1: Nhân Viên" style="rounded=0;whiteSpace=wrap;html=1;glass=0;labelBackgroundColor=none;fontSize=29;fontStyle=1;fillColor=none;strokeColor=none;" vertex="1" parent="1">
                    <mxGeometry x="209" y="700" width="450" height="60" as="geometry"/>
                </mxCell>
                <mxCell id="172" value="" style="rounded=0;whiteSpace=wrap;html=1;labelBackgroundColor=none;fillColor=#2E2E2E;" vertex="1" parent="1">
                    <mxGeometry x="39" y="2680" width="770" height="820" as="geometry"/>
                </mxCell>
                <mxCell id="173" value="" style="rounded=1;whiteSpace=wrap;html=1;fontSize=18;fillColor=#1ba1e2;fontColor=#ffffff;strokeColor=#006EAF;" vertex="1" parent="1">
                    <mxGeometry x="39" y="3419" width="770" height="81" as="geometry"/>
                </mxCell>
                <mxCell id="174" value="" style="rounded=1;whiteSpace=wrap;html=1;fontSize=18;fillColor=#0050ef;fontColor=#ffffff;strokeColor=#001DBC;" vertex="1" parent="1">
                    <mxGeometry x="39" y="2680" width="770" height="68" as="geometry"/>
                </mxCell>
                <mxCell id="175" value="&lt;font style=&quot;font-size: 48px&quot;&gt;Footer&lt;/font&gt;" style="text;html=1;strokeColor=none;fillColor=none;align=center;verticalAlign=middle;whiteSpace=wrap;rounded=0;fontSize=12;" vertex="1" parent="1">
                    <mxGeometry x="252" y="3439.5" width="278" height="30" as="geometry"/>
                </mxCell>
                <mxCell id="176" value="Nhân viên" style="text;html=1;strokeColor=none;fillColor=none;align=center;verticalAlign=middle;whiteSpace=wrap;rounded=0;fontSize=18;" vertex="1" parent="1">
                    <mxGeometry x="79" y="2690" width="110" height="48" as="geometry"/>
                </mxCell>
                <mxCell id="177" value="Phòng ban" style="text;html=1;strokeColor=none;fillColor=none;align=center;verticalAlign=middle;whiteSpace=wrap;rounded=0;fontSize=18;" vertex="1" parent="1">
                    <mxGeometry x="189" y="2690" width="110" height="48" as="geometry"/>
                </mxCell>
                <mxCell id="178" value="Bảng Lương" style="text;html=1;strokeColor=none;fillColor=none;align=center;verticalAlign=middle;whiteSpace=wrap;rounded=0;fontSize=18;" vertex="1" parent="1">
                    <mxGeometry x="309" y="2690" width="110" height="48" as="geometry"/>
                </mxCell>
                <mxCell id="185" value="Page 4: Bảng Lương" style="rounded=0;whiteSpace=wrap;html=1;glass=0;labelBackgroundColor=none;fontSize=29;fontStyle=1;fillColor=none;strokeColor=none;" vertex="1" parent="1">
                    <mxGeometry x="197" y="2630" width="450" height="60" as="geometry"/>
                </mxCell>
                <mxCell id="192" value="&lt;b style=&quot;font-size: 18px&quot;&gt;Nguyễn Văn A&lt;/b&gt;&lt;br style=&quot;font-size: 18px&quot;&gt;&lt;span style=&quot;font-size: 18px&quot;&gt;Mã nhân viên: 1&lt;/span&gt;&lt;br style=&quot;font-size: 18px&quot;&gt;&lt;span style=&quot;font-size: 18px&quot;&gt;Hệ số lương: 1.1&lt;/span&gt;&lt;br style=&quot;font-size: 18px&quot;&gt;&lt;span style=&quot;font-size: 18px&quot;&gt;Số ngày làm thêm: 1&lt;/span&gt;" style="rounded=0;whiteSpace=wrap;html=1;glass=0;labelBackgroundColor=none;fontSize=29;fontColor=#FFFFFF;fillColor=none;gradientColor=none;align=left;verticalAlign=top;" vertex="1" parent="1">
                    <mxGeometry x="109" y="2830" width="266" height="210" as="geometry"/>
                </mxCell>
                <mxCell id="193" value="Lương: 3000000" style="rounded=0;whiteSpace=wrap;html=1;glass=0;labelBackgroundColor=none;fontSize=20;fontColor=#333333;fillColor=#C9C9C9;strokeColor=#666666;" vertex="1" parent="1">
                    <mxGeometry x="119" y="3000" width="243" height="40" as="geometry"/>
                </mxCell>
                <mxCell id="194" value="" style="rounded=1;whiteSpace=wrap;html=1;fontSize=18;fillColor=none;strokeColor=#2D7600;fontColor=#ffffff;gradientColor=none;glass=0;" vertex="1" parent="1">
                    <mxGeometry x="39" y="2751" width="258" height="40" as="geometry"/>
                </mxCell>
                <mxCell id="195" value="Nhân viên / Bảng Lương" style="text;html=1;strokeColor=none;fillColor=none;align=center;verticalAlign=middle;whiteSpace=wrap;rounded=0;fontSize=18;" vertex="1" parent="1">
                    <mxGeometry x="43" y="2750" width="238" height="48" as="geometry"/>
                </mxCell>
                <mxCell id="196" value="&lt;b style=&quot;font-size: 18px&quot;&gt;Nguyễn Văn A&lt;/b&gt;&lt;br style=&quot;font-size: 18px&quot;&gt;&lt;span style=&quot;font-size: 18px&quot;&gt;Mã nhân viên: 1&lt;/span&gt;&lt;br style=&quot;font-size: 18px&quot;&gt;&lt;span style=&quot;font-size: 18px&quot;&gt;Hệ số lương: 1.1&lt;/span&gt;&lt;br style=&quot;font-size: 18px&quot;&gt;&lt;span style=&quot;font-size: 18px&quot;&gt;Số ngày làm thêm: 1&lt;/span&gt;" style="rounded=0;whiteSpace=wrap;html=1;glass=0;labelBackgroundColor=none;fontSize=29;fontColor=#FFFFFF;fillColor=none;gradientColor=none;align=left;verticalAlign=top;" vertex="1" parent="1">
                    <mxGeometry x="443" y="2830" width="266" height="210" as="geometry"/>
                </mxCell>
                <mxCell id="197" value="Lương: 3000000" style="rounded=0;whiteSpace=wrap;html=1;glass=0;labelBackgroundColor=none;fontSize=20;fontColor=#333333;fillColor=#C9C9C9;strokeColor=#666666;" vertex="1" parent="1">
                    <mxGeometry x="453" y="3000" width="243" height="40" as="geometry"/>
                </mxCell>
                <mxCell id="198" value="&lt;b style=&quot;font-size: 18px&quot;&gt;Nguyễn Văn A&lt;/b&gt;&lt;br style=&quot;font-size: 18px&quot;&gt;&lt;span style=&quot;font-size: 18px&quot;&gt;Mã nhân viên: 1&lt;/span&gt;&lt;br style=&quot;font-size: 18px&quot;&gt;&lt;span style=&quot;font-size: 18px&quot;&gt;Hệ số lương: 1.1&lt;/span&gt;&lt;br style=&quot;font-size: 18px&quot;&gt;&lt;span style=&quot;font-size: 18px&quot;&gt;Số ngày làm thêm: 1&lt;/span&gt;" style="rounded=0;whiteSpace=wrap;html=1;glass=0;labelBackgroundColor=none;fontSize=29;fontColor=#FFFFFF;fillColor=none;gradientColor=none;align=left;verticalAlign=top;" vertex="1" parent="1">
                    <mxGeometry x="109" y="3100" width="266" height="210" as="geometry"/>
                </mxCell>
                <mxCell id="199" value="Lương: 3000000" style="rounded=0;whiteSpace=wrap;html=1;glass=0;labelBackgroundColor=none;fontSize=20;fontColor=#333333;fillColor=#C9C9C9;strokeColor=#666666;" vertex="1" parent="1">
                    <mxGeometry x="119" y="3270" width="243" height="40" as="geometry"/>
                </mxCell>
                <mxCell id="200" value="&lt;b style=&quot;font-size: 18px&quot;&gt;Nguyễn Văn A&lt;/b&gt;&lt;br style=&quot;font-size: 18px&quot;&gt;&lt;span style=&quot;font-size: 18px&quot;&gt;Mã nhân viên: 1&lt;/span&gt;&lt;br style=&quot;font-size: 18px&quot;&gt;&lt;span style=&quot;font-size: 18px&quot;&gt;Hệ số lương: 1.1&lt;/span&gt;&lt;br style=&quot;font-size: 18px&quot;&gt;&lt;span style=&quot;font-size: 18px&quot;&gt;Số ngày làm thêm: 1&lt;/span&gt;" style="rounded=0;whiteSpace=wrap;html=1;glass=0;labelBackgroundColor=none;fontSize=29;fontColor=#FFFFFF;fillColor=none;gradientColor=none;align=left;verticalAlign=top;" vertex="1" parent="1">
                    <mxGeometry x="443" y="3100" width="266" height="210" as="geometry"/>
                </mxCell>
                <mxCell id="201" value="Lương: 3000000" style="rounded=0;whiteSpace=wrap;html=1;glass=0;labelBackgroundColor=none;fontSize=20;fontColor=#333333;fillColor=#C9C9C9;strokeColor=#666666;" vertex="1" parent="1">
                    <mxGeometry x="453" y="3270" width="243" height="40" as="geometry"/>
                </mxCell>
                <mxCell id="205" value="&lt;font&gt;&lt;span style=&quot;font-size: 22px ; font-weight: bold ; white-space: pre&quot;&gt;&#9;&lt;/span&gt;&lt;span style=&quot;font-size: 22px ; font-weight: bold ; white-space: pre&quot;&gt;&#9;&lt;/span&gt;&lt;span style=&quot;font-size: 22px ; font-weight: bold ; white-space: pre&quot;&gt;&#9;&lt;/span&gt;&lt;span style=&quot;font-size: 22px ; font-weight: bold ; white-space: pre&quot;&gt;&#9;&lt;/span&gt;&lt;span style=&quot;font-size: 22px ; font-weight: bold ; white-space: pre&quot;&gt;&#9;&lt;/span&gt;&lt;b style=&quot;font-size: 22px&quot;&gt;Giải thích về dự án&lt;/b&gt;&lt;br&gt;&lt;font style=&quot;font-size: 21px&quot;&gt;1. Tổng quan về dự án:&lt;br&gt;&lt;span style=&quot;white-space: pre&quot;&gt;&#9;&lt;/span&gt;-Quản lý danh sách nhân viên&lt;br&gt;&lt;span style=&quot;white-space: pre&quot;&gt;&#9;&lt;/span&gt;- Gồm có 4 trang:&amp;nbsp;&lt;br&gt;&lt;span style=&quot;white-space: pre&quot;&gt;&#9;&lt;/span&gt;&lt;span style=&quot;white-space: pre&quot;&gt;&#9;&lt;/span&gt;+ Trang list tất cả các nhân viên&lt;br&gt;&lt;span style=&quot;white-space: pre&quot;&gt;&#9;&lt;/span&gt;&lt;span style=&quot;white-space: pre&quot;&gt;&#9;&lt;/span&gt;+&amp;nbsp;Trang chi tiết của nhân viên sẽ hiện ra khi click vào ảnh nhân viên&amp;nbsp;&lt;br&gt;&lt;span style=&quot;white-space: pre&quot;&gt;&#9;&lt;/span&gt;&lt;span style=&quot;white-space: pre&quot;&gt;&#9;&lt;/span&gt;+&amp;nbsp;Trang danh sách các phòng ban hiện ra khi click vào &quot;phòng ban&quot;&lt;br&gt;&lt;span style=&quot;white-space: pre&quot;&gt;&#9;&lt;/span&gt;&lt;span style=&quot;white-space: pre&quot;&gt;&#9;&lt;/span&gt;+Trang bàng lương của các nhân viên hiện ra khi click vào &quot;bảng lương&lt;br&gt;2. Các giao diện được mô phỏng như các hình dưới đây&lt;br&gt;&lt;br&gt;3. Cấu trúc Route.&lt;br&gt;&lt;span style=&quot;white-space: pre&quot;&gt;&#9;&lt;/span&gt;+Giao diện trang chủ mặc định là trang nhân viên&lt;br&gt;&lt;span style=&quot;white-space: pre&quot;&gt;&#9;&lt;/span&gt;+Các trang đều có chung giao diện phần Header và Footer&lt;br&gt;&lt;span style=&quot;white-space: pre&quot;&gt;&#9;&lt;/span&gt;+ Khi đi đến trang chi tiết nhân viên hoặc trang bảng lương&lt;br&gt;&lt;span style=&quot;white-space: pre&quot;&gt;&#9;&lt;span style=&quot;white-space: pre&quot;&gt;&#9;&lt;/span&gt;&lt;/span&gt;thì sẽ có cấu trúc thư mục hiện ra để người dùng biết&lt;br&gt;&lt;br&gt;&lt;/font&gt;&lt;br&gt;&lt;br&gt;&lt;/font&gt;" style="rounded=0;whiteSpace=wrap;html=1;shadow=0;glass=0;labelBackgroundColor=none;sketch=0;fontSize=20;fontColor=#FFFFFF;strokeColor=#4A4A4A;fillColor=#2E2E2E;gradientColor=none;align=left;verticalAlign=top;" vertex="1" parent="1">
                    <mxGeometry x="30" y="30" width="790" height="570" as="geometry"/>
                </mxCell>
            </root>
        </mxGraphModel>
    </diagram>
</mxfile>